<svg width="19" height="20" viewBox="0 0 19 20" fill="none" xmlns="http://www.w3.org/2000/svg">
<path opacity="0.8" d="M9.48012 0.924805C4.25257 0.924805 0 5.17738 0 10.4049C0 15.6325 4.25257 19.885 9.48012 19.885C14.7077 19.885 18.9602 15.6325 18.9602 10.4049C18.9602 5.17738 14.7077 0.924805 9.48012 0.924805ZM13.9887 15.3084C13.8347 15.4625 13.6325 15.54 13.4302 15.54C13.228 15.54 13.0256 15.4625 12.8717 15.3084L8.92161 11.3585C8.77305 11.2108 8.69016 11.01 8.69016 10.8V5.66487C8.69016 5.22801 9.04399 4.8749 9.48012 4.8749C9.91626 4.8749 10.2701 5.22801 10.2701 5.66487V10.4729L13.9887 14.1914C14.2976 14.5004 14.2976 14.9996 13.9887 15.3084Z" fill="#636363"/>
</svg>
