<svg width="20" height="20" viewBox="0 0 20 20" fill="none" xmlns="http://www.w3.org/2000/svg">
<g opacity="0.8">
<path d="M10.0309 0.470703C4.79572 0.470703 0.550781 4.715 0.550781 9.95083C0.550781 15.1867 4.79531 19.4309 10.0309 19.4309C15.2669 19.4309 19.511 15.1867 19.511 9.95083C19.511 4.715 15.2669 0.470703 10.0309 0.470703ZM10.0309 3.30537C11.7632 3.30537 13.1669 4.70959 13.1669 6.44112C13.1669 8.17307 11.7632 9.57687 10.0309 9.57687C8.29945 9.57687 6.89571 8.17307 6.89571 6.44112C6.89571 4.70959 8.29945 3.30537 10.0309 3.30537ZM10.0288 16.9523C8.30111 16.9523 6.71873 16.3231 5.49822 15.2816C5.2009 15.028 5.02933 14.6561 5.02933 14.2659C5.02933 12.5098 6.45056 11.1043 8.207 11.1043H11.8556C13.6125 11.1043 15.0283 12.5098 15.0283 14.2659C15.0283 14.6565 14.8576 15.0276 14.5598 15.2812C13.3397 16.3231 11.7569 16.9523 10.0288 16.9523Z" fill="#636363"/>
</g>
</svg>
