<svg width="31" height="32" viewBox="0 0 31 32" fill="none" xmlns="http://www.w3.org/2000/svg">
<path d="M23.4017 31.0578C21.7693 31.0578 20.0503 30.6678 18.2735 29.9166C16.5401 29.1799 14.7922 28.1687 13.0876 26.9408C11.3975 25.6985 9.76514 24.3117 8.21948 22.795C6.68826 21.2493 5.30149 19.617 4.07363 17.9413C2.83131 16.2078 1.83458 14.4744 1.12675 12.7987C0.375582 11.0075 0 9.274 0 7.64166C0 6.51491 0.202237 5.44595 0.592265 4.44921C0.996738 3.42358 1.64678 2.47018 2.52796 1.64678C3.64026 0.548928 4.91146 0 6.26934 0C6.83271 0 7.41053 0.130009 7.90168 0.361137C8.46505 0.621156 8.94175 1.01118 9.28844 1.53122L12.6398 6.25489C12.9432 6.67381 13.1743 7.07829 13.3332 7.48276C13.521 7.91612 13.6221 8.34949 13.6221 8.76841C13.6221 9.31734 13.4632 9.85182 13.1598 10.3574C12.9431 10.7474 12.6109 11.1664 12.192 11.5853L11.2097 12.6109C11.2241 12.6542 11.2386 12.6831 11.253 12.712C11.4264 13.0154 11.7731 13.5354 12.4376 14.3155C13.1454 15.1244 13.8099 15.8611 14.4744 16.5401C15.3267 17.3779 16.0345 18.0424 16.699 18.5913C17.5224 19.2847 18.0569 19.6314 18.3747 19.7903L18.3458 19.8625L19.4003 18.8225C19.8481 18.3747 20.2815 18.0424 20.7004 17.8257C21.4949 17.3346 22.5061 17.2479 23.5172 17.6668C23.8928 17.8257 24.2973 18.0424 24.7307 18.3458L29.5266 21.7549C30.061 22.116 30.4511 22.5783 30.6822 23.1272C30.8989 23.6761 31 24.1817 31 24.6873C31 25.3807 30.8411 26.0741 30.5377 26.7241C30.2344 27.3742 29.8588 27.9376 29.3821 28.4576C28.5587 29.3677 27.6631 30.0177 26.623 30.4366C25.6263 30.8411 24.5429 31.0578 23.4017 31.0578ZM6.26934 2.16682C5.47484 2.16682 4.73812 2.51351 4.03029 3.2069C3.3658 3.82805 2.90354 4.50699 2.61463 5.24371C2.31128 5.99487 2.16682 6.78938 2.16682 7.64166C2.16682 8.98509 2.48462 10.4441 3.12022 11.9464C3.77027 13.4776 4.68034 15.0666 5.83597 16.6556C6.99161 18.2446 8.30615 19.7903 9.7507 21.2493C11.1952 22.6794 12.7554 24.0084 14.3588 25.1785C15.9189 26.3197 17.5224 27.2442 19.1114 27.9087C21.5815 28.9632 23.8928 29.2088 25.7996 28.4143C26.5363 28.1109 27.1864 27.6486 27.7787 26.9842C28.1109 26.623 28.3709 26.233 28.5876 25.7707C28.761 25.4096 28.8476 25.034 28.8476 24.6584C28.8476 24.4273 28.8043 24.1962 28.6887 23.9362C28.6454 23.8495 28.5587 23.6906 28.2843 23.5028L23.4884 20.0937C23.1994 19.8914 22.9394 19.747 22.6938 19.6459C22.376 19.5158 22.246 19.3858 21.7549 19.6892C21.466 19.8336 21.206 20.0503 20.9171 20.3392L19.8192 21.4226C19.2558 21.9716 18.3891 22.1016 17.7246 21.856L17.3346 21.6827C16.7423 21.3649 16.0489 20.8737 15.2833 20.2237C14.5899 19.6314 13.8388 18.938 12.9287 18.0424C12.2209 17.3201 11.513 16.5545 10.7763 15.7022C10.0974 14.9077 9.60624 14.2288 9.30289 13.6654L9.12954 13.2321C9.04287 12.8998 9.01398 12.712 9.01398 12.5098C9.01398 11.9897 9.20177 11.5275 9.56291 11.1664L10.6463 10.0396C10.9352 9.7507 11.1519 9.47623 11.2964 9.23066C11.4119 9.04287 11.4553 8.88397 11.4553 8.73952C11.4553 8.62395 11.4119 8.45061 11.3397 8.27726C11.2386 8.04613 11.0797 7.78611 10.8774 7.51165L7.5261 2.77353C7.38164 2.5713 7.20829 2.42684 6.99161 2.32572C6.76048 2.2246 6.51491 2.16682 6.26934 2.16682ZM18.3458 19.877L18.1146 20.8593L18.5047 19.8481C18.4324 19.8336 18.3747 19.8481 18.3458 19.877Z" fill="#124342"/>
</svg>
