<svg width="155" height="119" viewBox="0 0 155 119" fill="none" xmlns="http://www.w3.org/2000/svg">
<g opacity="0.5">
<circle cx="3.5" cy="114.75" r="3.5" transform="rotate(-90 3.5 114.75)" fill="#124342"/>
<circle cx="3.5" cy="40.5835" r="3.5" transform="rotate(-90 3.5 40.5835)" fill="#124342"/>
<circle cx="3.5" cy="77.667" r="3.5" transform="rotate(-90 3.5 77.667)" fill="#124342"/>
<circle cx="3.5" cy="3.50024" r="3.5" transform="rotate(-90 3.5 3.50024)" fill="#124342"/>
<circle cx="36.345" cy="114.75" r="3.5" transform="rotate(-90 36.345 114.75)" fill="#124342"/>
<circle cx="36.345" cy="40.583" r="3.5" transform="rotate(-90 36.345 40.583)" fill="#124342"/>
<circle cx="36.345" cy="77.667" r="3.5" transform="rotate(-90 36.345 77.667)" fill="#124342"/>
<circle cx="36.345" cy="3.5" r="3.5" transform="rotate(-90 36.345 3.5)" fill="#124342"/>
<circle cx="69.1897" cy="114.75" r="3.5" transform="rotate(-90 69.1897 114.75)" fill="#124342"/>
<circle cx="69.1897" cy="40.5835" r="3.5" transform="rotate(-90 69.1897 40.5835)" fill="#124342"/>
<circle cx="69.1897" cy="77.667" r="3.5" transform="rotate(-90 69.1897 77.667)" fill="#124342"/>
<circle cx="69.1897" cy="3.50024" r="3.5" transform="rotate(-90 69.1897 3.50024)" fill="#124342"/>
<circle cx="102.036" cy="114.75" r="3.5" transform="rotate(-90 102.036 114.75)" fill="#124342"/>
<circle cx="102.036" cy="40.5835" r="3.5" transform="rotate(-90 102.036 40.5835)" fill="#124342"/>
<circle cx="102.036" cy="77.667" r="3.5" transform="rotate(-90 102.036 77.667)" fill="#124342"/>
<circle cx="102.036" cy="3.50024" r="3.5" transform="rotate(-90 102.036 3.50024)" fill="#124342"/>
<circle cx="134.881" cy="114.75" r="3.5" transform="rotate(-90 134.881 114.75)" fill="#124342"/>
<circle cx="134.881" cy="40.5835" r="3.5" transform="rotate(-90 134.881 40.5835)" fill="#124342"/>
<circle cx="134.881" cy="77.667" r="3.5" transform="rotate(-90 134.881 77.667)" fill="#124342"/>
<circle cx="134.881" cy="3.50024" r="3.5" transform="rotate(-90 134.881 3.50024)" fill="#124342"/>
</g>
</svg>
