<svg width="55" height="55" viewBox="0 0 55 55" fill="none" xmlns="http://www.w3.org/2000/svg">
<path d="M27.6835 54.9894C23.7979 54.9894 19.8847 53.5013 16.936 50.5526L4.45242 38.069C1.42108 35.0377 -0.177266 30.8489 0.0156371 26.5775L0.677021 12.7986C0.980155 6.21231 6.18855 1.00392 12.8024 0.673224L26.5812 0.0118403C30.8526 -0.153506 35.0414 1.41728 38.0727 4.44862L50.5563 16.9322C56.4812 22.8572 56.4812 32.5299 50.5563 38.4548L38.4585 50.5526C35.4823 53.5013 31.5967 54.9894 27.6835 54.9894ZM7.37353 35.1203L19.8571 47.604C21.9515 49.6983 24.7348 50.8558 27.6835 50.8558C30.6322 50.8558 33.4155 49.6983 35.5099 47.604L47.6077 35.5061C49.702 33.4118 50.8595 30.6284 50.8595 27.6798C50.8595 24.7311 49.702 21.9477 47.6077 19.8533L35.1241 7.36973C32.9194 5.16512 29.8605 3.98014 26.7741 4.14549L12.9953 4.80687C8.50339 4.99977 5.00357 8.49959 4.78311 12.9639L4.12173 26.7428C3.98394 29.8568 5.16892 32.9157 7.37353 35.1203Z" fill="#E4B850"/>
<path d="M20.6037 29.5531C15.6709 29.5531 11.6475 25.5297 11.6475 20.5969C11.6475 15.664 15.6709 11.6406 20.6037 11.6406C25.5365 11.6406 29.5599 15.664 29.5599 20.5969C29.5599 25.5297 25.5365 29.5531 20.6037 29.5531ZM20.6037 15.7743C17.9582 15.7743 15.7811 17.9513 15.7811 20.5969C15.7811 23.2424 17.9582 25.4194 20.6037 25.4194C23.2492 25.4194 25.4263 23.2424 25.4263 20.5969C25.4263 17.9513 23.2492 15.7743 20.6037 15.7743Z" fill="#E4B850"/>
</svg>
