<svg width="57" height="35" viewBox="0 0 57 35" fill="none" xmlns="http://www.w3.org/2000/svg">
<path fill-rule="evenodd" clip-rule="evenodd" d="M45.1734 1.50966C44.6099 2.07164 44.2226 3.03521 44.2226 3.8755C44.2226 4.71579 44.6099 5.67936 45.1734 6.24134C45.6572 6.72373 45.8684 6.81057 46.5579 6.81057C47.246 6.81057 47.4589 6.72356 47.9373 6.24652C49.0888 5.09822 49.0955 2.75137 47.9506 1.54091C47.4577 1.01968 47.2745 0.94043 46.5635 0.94043C45.8677 0.94043 45.6582 1.02624 45.1734 1.50966ZM47.2406 2.70544C47.3888 2.91642 47.5102 3.44301 47.5102 3.8755C47.5102 5.20388 46.7032 5.84839 45.9224 5.14362C45.694 4.93765 45.6057 4.61099 45.6057 3.97357C45.6057 2.93852 45.9613 2.32164 46.5579 2.32164C46.7887 2.32164 47.0902 2.49118 47.2406 2.70544ZM14.4412 5.5806C12.693 6.15122 11.3786 7.69178 11.0717 9.52983L10.9491 10.2636H12.5279C13.8821 10.2636 14.1195 10.2206 14.1963 9.96146C14.4732 9.02793 14.9117 8.44851 15.5135 8.22148C16.0866 8.00515 16.2196 8.01343 16.812 8.30193C17.3179 8.54831 17.5308 8.79313 17.7239 9.3501C17.9486 9.9984 17.9457 10.1396 17.6964 10.6609C17.3821 11.3181 16.5047 11.8175 15.6641 11.8175H15.1207L15.1711 13.2418L15.2213 14.6662L16.0488 14.761C18.1461 15.0013 18.8214 17.7182 17.0153 18.6496C15.9902 19.1781 14.7249 18.5241 14.32 17.256L14.1546 16.738L12.6262 16.6878C11.7855 16.6601 11.0395 16.699 10.9683 16.7741C10.8972 16.8492 10.9877 17.3882 11.1697 17.972C11.5938 19.3324 12.697 20.5916 13.9611 21.1581C15.1941 21.7107 17.433 21.7314 18.6062 21.2012C20.2833 20.4431 21.257 19.1189 21.4703 17.3059C21.6295 15.9523 21.3118 15.0284 20.3316 13.9944L19.4952 13.1123L19.927 12.5944C21.3892 10.8406 21.3904 8.53087 19.9303 7.01102C18.981 6.02276 17.8402 5.55039 16.2601 5.491C15.4983 5.46251 14.6797 5.50274 14.4412 5.5806ZM38.2014 5.70699C37.1836 6.08043 35.7328 7.45318 35.1575 8.58715C34.4857 9.91087 34.1891 11.1237 34.0719 13.026C33.8411 16.772 35.2561 19.8558 37.7684 21.0814C39.0723 21.7176 40.9859 21.7494 42.1431 21.1544C44.6774 19.8511 45.8145 17.8154 46.0505 14.16C46.3014 10.2731 44.8381 7.00808 42.3502 5.90415C41.2814 5.43005 39.2233 5.33216 38.2014 5.70699ZM26.5458 6.33578C25.1128 8.29313 23.4273 10.992 22.9462 12.0999C21.5264 15.3687 21.8124 18.2919 23.7331 20.1394C26.5698 22.8682 31.9118 21.6165 33.2366 17.9124C33.5557 17.0203 33.5456 14.987 33.2175 14.0265C32.8759 13.0269 31.9528 11.9475 30.9267 11.3478C30.3278 10.9979 29.8095 10.8573 28.8609 10.7879L27.5944 10.6952L29.3287 8.28053C30.2824 6.95232 31.0627 5.80643 31.0627 5.73392C31.0627 5.6614 30.1673 5.60201 29.0728 5.60201H27.083L26.5458 6.33578ZM41.2058 9.03587C42.7366 9.96681 43.2969 14.569 42.1518 16.8074C41.1845 18.6981 39.3233 18.912 38.19 17.2627C36.789 15.2237 37.248 10.0559 38.9206 9.03881C39.6068 8.62151 40.5224 8.6203 41.2058 9.03587ZM6.93091 11.5096C4.86078 12.7401 3.37099 14.0043 2.41323 15.3428C-1.597 20.9469 2.44388 26.936 12.4853 30.2711C14.6529 30.9911 17.6413 31.7062 19.8458 32.0327L21.181 32.2304L21.2308 33.5876L21.2809 34.9448L26.1668 32.3158C28.8541 30.8699 31.0541 29.6092 31.0558 29.5142C31.0581 29.3856 22.1881 24.4486 21.3366 24.1045C21.2583 24.0728 21.1943 24.6313 21.1943 25.3454V26.6437L20.545 26.5512C12.4939 25.4034 6.353 22.547 4.98752 19.3145C4.62325 18.4523 4.62913 17.1018 5.00085 16.2403C5.36719 15.3912 6.78548 13.8882 7.88365 13.1855L8.72887 12.6448V11.6268C8.72887 11.0669 8.66516 10.6089 8.58742 10.6089C8.50951 10.6089 7.76419 11.0143 6.93091 11.5096ZM48.2027 11.6084V12.6448L49.0635 13.1956C50.4409 14.0769 51.7863 15.6431 52.1049 16.7354C53.0699 20.0462 49.6939 23.0852 42.6907 25.2098C40.7089 25.811 36.8434 26.5463 34.6119 26.7464C33.9454 26.8063 33.1079 26.897 32.7508 26.9481L32.1015 27.0412V29.8106V32.5801L33.5299 32.4605C41.4461 31.7975 48.6942 29.33 52.755 25.9153C53.8791 24.9702 55.2122 23.1827 55.6726 22.0039C56.1762 20.714 56.1847 18.6474 55.6915 17.3898C54.8632 15.2782 52.9444 13.27 50.1676 11.6087C48.1282 10.3888 48.2027 10.3888 48.2027 11.6084ZM28.8358 13.8152C29.1678 13.9865 29.4888 14.3727 29.7061 14.8627C30.1689 15.9058 30.0158 16.7979 29.2319 17.6268C28.6625 18.229 28.614 18.2453 27.6055 18.1726C26.392 18.085 25.8039 17.6562 25.4973 16.6355C25.142 15.4533 25.6225 14.4045 26.821 13.7449C27.3207 13.4701 28.2279 13.5017 28.8358 13.8152Z" fill="url(#paint0_linear_39_2312)"/>
<defs>
<linearGradient id="paint0_linear_39_2312" x1="28.4689" y1="0.94043" x2="28.4689" y2="34.9448" gradientUnits="userSpaceOnUse">
<stop stop-color="#012322" stop-opacity="0.97"/>
<stop offset="1" stop-color="#124342"/>
</linearGradient>
</defs>
</svg>
