<svg width="98" height="98" viewBox="0 0 98 98" fill="none" xmlns="http://www.w3.org/2000/svg">
<path d="M38 56.7001C38 60.9681 41.3 64.4001 45.348 64.4001H53.62C57.14 64.4001 60 61.4081 60 57.6681C60 53.6641 58.24 52.2121 55.644 51.2881L42.4 46.6681C39.804 45.7441 38.044 44.3361 38.044 40.2881C38.044 36.592 40.904 33.556 44.424 33.556H52.696C56.744 33.556 60.044 36.988 60.044 41.2561" stroke="#124342" stroke-width="9.86781" stroke-linecap="round" stroke-linejoin="round"/>
<path d="M49 29.2001V68.8001" stroke="#124342" stroke-width="9.86781" stroke-linecap="round" stroke-linejoin="round"/>
<path d="M93 49C93 73.288 73.288 93 49 93C24.712 93 5 73.288 5 49C5 24.712 24.712 5 49 5" stroke="#124342" stroke-width="9.86781" stroke-linecap="round" stroke-linejoin="round"/>
<path d="M92.9999 22.6V5H75.3999" stroke="#124342" stroke-width="9.86781" stroke-linecap="round" stroke-linejoin="round"/>
<path d="M71 27L93 5" stroke="#124342" stroke-width="9.86781" stroke-linecap="round" stroke-linejoin="round"/>
</svg>
