<svg width="21" height="20" viewBox="0 0 21 20" fill="none" xmlns="http://www.w3.org/2000/svg">
<path opacity="0.5" d="M10.4998 0C8.5143 0 6.57339 0.58649 4.92251 1.6853C3.27163 2.78412 1.98492 4.3459 1.2251 6.17316C0.465287 8.00042 0.266484 10.0111 0.653836 11.9509C1.04119 13.8907 1.9973 15.6725 3.40126 17.0711C4.80521 18.4696 6.59397 19.422 8.54132 19.8078C10.4887 20.1937 12.5071 19.9957 14.3415 19.2388C16.1759 18.4819 17.7437 17.2002 18.8468 15.5557C19.9499 13.9112 20.5387 11.9778 20.5387 10C20.5387 7.34783 19.481 4.80429 17.5983 2.92893C15.7157 1.05357 13.1623 0 10.4998 0ZM7.58061 15.2632H5.39055V8.23552H7.58061V15.2632ZM6.48426 7.27631C6.23221 7.27735 5.98551 7.20393 5.77535 7.06533C5.56518 6.92674 5.40098 6.72918 5.3035 6.49765C5.20603 6.26611 5.17965 6.01098 5.2277 5.76452C5.27575 5.51805 5.39608 5.2913 5.57347 5.11294C5.75086 4.93458 5.97736 4.81261 6.22433 4.76245C6.47129 4.71229 6.72764 4.73619 6.96098 4.83113C7.19431 4.92606 7.39416 5.08778 7.53525 5.29583C7.67633 5.50388 7.75234 5.74893 7.75364 6C7.75435 6.33667 7.62122 6.65992 7.38335 6.89909C7.14548 7.13825 6.82222 7.27388 6.48426 7.27631ZM15.7834 15.2632H13.5947V11.8421C13.5947 11.0263 13.5788 9.98026 12.4561 9.98026C11.3333 9.98026 11.1352 10.8671 11.1352 11.7829V15.2632H8.95434V8.23552H11.0559V9.19342H11.0863C11.3782 8.64079 12.0928 8.05789 13.1588 8.05789C15.3752 8.05789 15.7834 9.51316 15.7834 11.4026V15.2632Z" fill="white"/>
</svg>
