<svg width="15" height="11" viewBox="0 0 15 11" fill="none" xmlns="http://www.w3.org/2000/svg">
<path d="M9.94629 5.23892L15.0002 8.43508V1.9043L9.94629 5.23892Z" fill="#E4B850"/>
<path d="M0 1.9043V8.43508L5.05386 5.23892L0 1.9043Z" fill="#E4B850"/>
<path d="M14.0653 0H0.93449C0.472951 0 0.0921802 0.346155 0.0229492 0.796156L7.49989 5.72309L14.9768 0.796156C14.9076 0.346155 14.5153 0 14.0653 0Z" fill="#E4B850"/>
<path d="M9.08085 5.80371L7.75392 6.68064C7.67315 6.72679 7.59238 6.76141 7.50007 6.76141C7.40777 6.76141 7.31546 6.73833 7.24623 6.68064L5.9193 5.80371L0.034668 9.53064C0.103899 9.98065 0.484669 10.3153 0.946209 10.3268H14.077C14.5386 10.3268 14.9193 9.99218 14.9886 9.53064L9.08085 5.80371Z" fill="#E4B850"/>
</svg>
