<svg width="21" height="30" viewBox="0 0 21 30" fill="none" xmlns="http://www.w3.org/2000/svg">
<path d="M10.1705 14.157C9.2228 14.157 8.3139 13.7805 7.64375 13.1104C6.97362 12.4402 6.59713 11.5313 6.59713 10.5836C6.59713 9.63589 6.97362 8.72699 7.64375 8.05685C8.3139 7.38671 9.2228 7.01022 10.1705 7.01022C11.1182 7.01022 12.0271 7.38671 12.6973 8.05685C13.3674 8.72699 13.7439 9.63589 13.7439 10.5836C13.7439 11.0529 13.6515 11.5175 13.4719 11.9511C13.2923 12.3846 13.0291 12.7786 12.6973 13.1104C12.3655 13.4422 11.9715 13.7054 11.538 13.885C11.1045 14.0646 10.6398 14.157 10.1705 14.157ZM10.1705 0.578125C7.5169 0.578125 4.97197 1.63227 3.09558 3.50866C1.21918 5.38506 0.165039 7.92999 0.165039 10.5836C0.165039 18.0877 10.1705 29.1652 10.1705 29.1652C10.1705 29.1652 20.176 18.0877 20.176 10.5836C20.176 7.92999 19.1219 5.38506 17.2455 3.50866C15.3691 1.63227 12.8241 0.578125 10.1705 0.578125Z" fill="#012322" fill-opacity="0.97"/>
</svg>
