<svg width="69" height="68" viewBox="0 0 69 68" fill="none" xmlns="http://www.w3.org/2000/svg">
<g filter="url(#filter0_i_21_7757)">
<ellipse cx="34.3721" cy="33.5633" rx="33.7296" ry="33.4763" fill="white"/>
</g>
<path fill-rule="evenodd" clip-rule="evenodd" d="M48.8645 19.414C48.3756 19.8978 48.0396 20.7275 48.0396 21.451C48.0396 22.1745 48.3756 23.0042 48.8645 23.4881C49.2841 23.9034 49.4674 23.9782 50.0656 23.9782C50.6625 23.9782 50.8472 23.9033 51.2622 23.4925C52.2612 22.5038 52.2671 20.4831 51.2738 19.4409C50.8462 18.9921 50.6873 18.9238 50.0704 18.9238C49.4668 18.9238 49.285 18.9977 48.8645 19.414ZM50.6578 20.4436C50.7864 20.6252 50.8917 21.0786 50.8917 21.451C50.8917 22.5948 50.1916 23.1497 49.5142 22.5429C49.3161 22.3656 49.2395 22.0843 49.2395 21.5355C49.2395 20.6443 49.548 20.1131 50.0656 20.1131C50.2658 20.1131 50.5273 20.2591 50.6578 20.4436ZM22.2028 22.9192C20.6862 23.4105 19.5459 24.737 19.2796 26.3196L19.1733 26.9514H20.5429C21.7178 26.9514 21.9237 26.9144 21.9904 26.6912C22.2306 25.8874 22.611 25.3885 23.1331 25.193C23.6303 25.0068 23.7456 25.0139 24.2596 25.2623C24.6985 25.4745 24.8832 25.6853 25.0507 26.1648C25.2457 26.723 25.2431 26.8446 25.0268 27.2934C24.7542 27.8594 23.993 28.2893 23.2638 28.2893H22.7923L22.836 29.5157L22.8796 30.7422L23.5975 30.8238C25.417 31.0307 26.0028 33.37 24.4359 34.172C23.5466 34.6271 22.449 34.0639 22.0976 32.972L21.9542 32.5261L20.6283 32.4828C19.8989 32.459 19.2517 32.4925 19.1899 32.5571C19.1282 32.6218 19.2068 33.0859 19.3646 33.5885C19.7326 34.76 20.6897 35.8441 21.7863 36.3319C22.856 36.8077 24.7984 36.8256 25.8161 36.369C27.2711 35.7163 28.1158 34.5761 28.3009 33.015C28.4391 31.8495 28.1634 31.0541 27.313 30.1637L26.5874 29.4042L26.962 28.9583C28.2306 27.4482 28.2316 25.4594 26.9648 24.1508C26.1413 23.2999 25.1516 22.8932 23.7808 22.842C23.1199 22.8175 22.4098 22.8521 22.2028 22.9192ZM42.816 23.028C41.9329 23.3495 40.6743 24.5315 40.1752 25.5079C39.5924 26.6477 39.3351 27.692 39.2334 29.3299C39.0332 32.5554 40.2608 35.2105 42.4403 36.2659C43.5714 36.8137 45.2316 36.841 46.2355 36.3288C48.4341 35.2065 49.4207 33.4537 49.6254 30.3063C49.843 26.9596 48.5735 24.1483 46.4152 23.1978C45.488 22.7895 43.7024 22.7053 42.816 23.028ZM32.7041 23.5694C31.4609 25.2547 29.9987 27.5786 29.5813 28.5325C28.3495 31.3471 28.5977 33.864 30.264 35.4548C32.725 37.8043 37.3594 36.7266 38.5087 33.5372C38.7855 32.7691 38.7768 31.0184 38.4922 30.1914C38.1958 29.3307 37.395 28.4012 36.5047 27.885C35.9852 27.5836 35.5355 27.4626 34.7126 27.4029L33.6139 27.323L35.1184 25.2439C35.9458 24.1003 36.6228 23.1136 36.6228 23.0512C36.6228 22.9887 35.846 22.9376 34.8964 22.9376H33.1702L32.7041 23.5694ZM45.4224 25.8943C46.7504 26.6958 47.2365 30.6585 46.243 32.5858C45.4039 34.2138 43.7892 34.398 42.806 32.9778C41.5906 31.2222 41.9888 26.7725 43.4399 25.8968C44.0351 25.5375 44.8295 25.5364 45.4224 25.8943ZM15.6873 28.0242C13.8914 29.0837 12.5989 30.1722 11.768 31.3248C8.28895 36.1501 11.7946 41.3069 20.506 44.1785C22.3865 44.7984 24.9791 45.4142 26.8916 45.6953L28.0499 45.8655L28.0931 47.0341L28.1366 48.2027L32.3753 45.9391C34.7067 44.6941 36.6153 43.6086 36.6168 43.5268C36.6187 43.416 28.9236 39.1652 28.1849 38.8689C28.117 38.8415 28.0615 39.3224 28.0615 39.9373V41.0552L27.4982 40.9755C20.5135 39.9872 15.1859 37.5278 14.0013 34.7445C13.6853 34.0021 13.6904 32.8393 14.0129 32.0975C14.3307 31.3664 15.5611 30.0723 16.5138 29.4673L17.2471 29.0017V28.1252C17.2471 27.6431 17.1918 27.2487 17.1244 27.2487C17.0568 27.2487 16.4102 27.5977 15.6873 28.0242ZM51.4925 28.1093V29.0017L52.2393 29.4759C53.4343 30.2348 54.6015 31.5833 54.8778 32.5238C55.715 35.3745 52.7862 37.9912 46.7106 39.8206C44.9913 40.3382 41.6378 40.9714 39.7019 41.1436C39.1236 41.1952 38.3971 41.2733 38.0872 41.3173L37.524 41.3974V43.782V46.1667L38.7631 46.0636C45.6308 45.4928 51.9189 43.3682 55.4418 40.428C56.4171 39.6143 57.5736 38.0752 57.973 37.0602C58.4099 35.9495 58.4173 34.1701 57.9894 33.0873C57.2708 31.2692 55.6061 29.54 53.1971 28.1096C51.4279 27.0592 51.4925 27.0592 51.4925 28.1093ZM34.6908 30.0094C34.9789 30.1569 35.2573 30.4895 35.4458 30.9113C35.8473 31.8095 35.7145 32.5777 35.0344 33.2914C34.5404 33.8099 34.4984 33.8239 33.6235 33.7613C32.5707 33.6859 32.0605 33.3166 31.7945 32.4378C31.4863 31.4199 31.9031 30.5168 32.9429 29.9489C33.3764 29.7123 34.1634 29.7395 34.6908 30.0094Z" fill="#012322"/>
<defs>
<filter id="filter0_i_21_7757" x="0.642578" y="0.0869751" width="67.459" height="66.9526" filterUnits="userSpaceOnUse" color-interpolation-filters="sRGB">
<feFlood flood-opacity="0" result="BackgroundImageFix"/>
<feBlend mode="normal" in="SourceGraphic" in2="BackgroundImageFix" result="shape"/>
<feColorMatrix in="SourceAlpha" type="matrix" values="0 0 0 0 0 0 0 0 0 0 0 0 0 0 0 0 0 0 127 0" result="hardAlpha"/>
<feOffset/>
<feGaussianBlur stdDeviation="1"/>
<feComposite in2="hardAlpha" operator="arithmetic" k2="-1" k3="1"/>
<feColorMatrix type="matrix" values="0 0 0 0 0.191667 0 0 0 0 0.191667 0 0 0 0 0.191667 0 0 0 0.45 0"/>
<feBlend mode="normal" in2="shape" result="effect1_innerShadow_21_7757"/>
</filter>
</defs>
</svg>
