<svg width="25" height="25" viewBox="0 0 25 25" fill="none" xmlns="http://www.w3.org/2000/svg">
<path d="M12.8371 0.641357C6.27313 0.641357 0.933105 5.98138 0.933105 12.5454C0.933105 19.1093 6.27313 24.4494 12.8371 24.4494C19.4011 24.4494 24.7411 19.1093 24.7411 12.5454C24.7411 5.98138 19.4011 0.641357 12.8371 0.641357ZM18.7891 13.3956H13.6874V18.4974C13.6874 18.9669 13.3067 19.3476 12.8371 19.3476C12.3675 19.3476 11.9868 18.9669 11.9868 18.4974V13.3956H6.88511C6.41554 13.3956 6.03482 13.0149 6.03482 12.5454C6.03482 12.0758 6.41554 11.6951 6.88511 11.6951H11.9868V6.59336C11.9868 6.12379 12.3675 5.74307 12.8371 5.74307C13.3067 5.74307 13.6874 6.12379 13.6874 6.59336V11.6951H18.7891C19.2587 11.6951 19.6394 12.0758 19.6394 12.5454C19.6394 13.0149 19.2587 13.3956 18.7891 13.3956Z" fill="#124342"/>
</svg>
