<svg width="25" height="25" viewBox="0 0 25 25" fill="none" xmlns="http://www.w3.org/2000/svg">
<path d="M12.8371 0.641602C6.27313 0.641602 0.933105 5.98163 0.933105 12.5456C0.933105 19.1096 6.27313 24.4496 12.8371 24.4496C19.4011 24.4496 24.7411 19.1096 24.7411 12.5456C24.7411 5.98163 19.4011 0.641602 12.8371 0.641602ZM18.7891 13.3959H13.6874V18.4976C13.6874 18.9672 13.3067 19.3479 12.8371 19.3479C12.3675 19.3479 11.9868 18.9672 11.9868 18.4976V13.3959H6.88511C6.41554 13.3959 6.03482 13.0152 6.03482 12.5456C6.03482 12.076 6.41554 11.6953 6.88511 11.6953H11.9868V6.5936C11.9868 6.12403 12.3675 5.74332 12.8371 5.74332C13.3067 5.74332 13.6874 6.12403 13.6874 6.5936V11.6953H18.7891C19.2587 11.6953 19.6394 12.076 19.6394 12.5456C19.6394 13.0152 19.2587 13.3959 18.7891 13.3959Z" fill="#124342"/>
</svg>
