<svg width="36" height="32" viewBox="0 0 36 32" fill="none" xmlns="http://www.w3.org/2000/svg">
<g filter="url(#filter0_d_29_6002)">
<path d="M32 14.4003V22.8003C32 23.4627 31.552 24.0003 31 24.0003C30.448 24.0003 30 23.4627 30 22.8003V21.6003H6V22.8003C6 23.4627 5.552 24.0003 5 24.0003C4.448 24.0003 4 23.4627 4 22.8003V14.4003C4 12.4155 5.346 10.8003 7 10.8003H29C30.654 10.8003 32 12.4155 32 14.4003Z" fill="#E4B850"/>
</g>
<g filter="url(#filter1_d_29_6002)">
<path d="M6.99878 8.4V1.2C6.99878 0.5376 7.44678 0 7.99878 0H27.9988C28.5508 0 28.9988 0.5376 28.9988 1.2V8.4H25.9988V7.2C25.9988 5.8764 25.1018 4.8 23.9988 4.8H20.9988C19.8958 4.8 18.9988 5.8764 18.9988 7.2V8.4H16.9988V7.2C16.9988 5.8764 16.1018 4.8 14.9988 4.8H11.9988C10.8958 4.8 9.99878 5.8764 9.99878 7.2V8.4H6.99878Z" fill="#E4B850"/>
</g>
<defs>
<filter id="filter0_d_29_6002" x="0" y="10.8003" width="36" height="21.2002" filterUnits="userSpaceOnUse" color-interpolation-filters="sRGB">
<feFlood flood-opacity="0" result="BackgroundImageFix"/>
<feColorMatrix in="SourceAlpha" type="matrix" values="0 0 0 0 0 0 0 0 0 0 0 0 0 0 0 0 0 0 127 0" result="hardAlpha"/>
<feOffset dy="4"/>
<feGaussianBlur stdDeviation="2"/>
<feComposite in2="hardAlpha" operator="out"/>
<feColorMatrix type="matrix" values="0 0 0 0 0 0 0 0 0 0 0 0 0 0 0 0 0 0 0.25 0"/>
<feBlend mode="normal" in2="BackgroundImageFix" result="effect1_dropShadow_29_6002"/>
<feBlend mode="normal" in="SourceGraphic" in2="effect1_dropShadow_29_6002" result="shape"/>
</filter>
<filter id="filter1_d_29_6002" x="2.99878" y="0" width="30" height="16.3999" filterUnits="userSpaceOnUse" color-interpolation-filters="sRGB">
<feFlood flood-opacity="0" result="BackgroundImageFix"/>
<feColorMatrix in="SourceAlpha" type="matrix" values="0 0 0 0 0 0 0 0 0 0 0 0 0 0 0 0 0 0 127 0" result="hardAlpha"/>
<feOffset dy="4"/>
<feGaussianBlur stdDeviation="2"/>
<feComposite in2="hardAlpha" operator="out"/>
<feColorMatrix type="matrix" values="0 0 0 0 0 0 0 0 0 0 0 0 0 0 0 0 0 0 0.25 0"/>
<feBlend mode="normal" in2="BackgroundImageFix" result="effect1_dropShadow_29_6002"/>
<feBlend mode="normal" in="SourceGraphic" in2="effect1_dropShadow_29_6002" result="shape"/>
</filter>
</defs>
</svg>
