<svg width="104" height="104" viewBox="0 0 104 104" fill="none" xmlns="http://www.w3.org/2000/svg">
<path d="M12.3022 31.5292V24.4668C12.3022 12.0584 22.3606 2 34.769 2H38.598C51.0065 2 61.0668 12.0584 61.0668 24.4668V31.5292" stroke="#124342" stroke-width="3" stroke-miterlimit="10" stroke-linecap="round" stroke-linejoin="round"/>
<path d="M63.2234 102H13.7627" stroke="#124342" stroke-width="3" stroke-miterlimit="10" stroke-linecap="round" stroke-linejoin="round"/>
<path d="M6.72032 102H4.50503C3.12072 102 2 100.879 2 99.4952V78.2738C2 71.5797 6.81086 65.8533 13.4044 64.7024L20.9899 63.3765" stroke="#124342" stroke-width="3" stroke-miterlimit="10" stroke-linecap="round" stroke-linejoin="round"/>
<path d="M52.3765 63.3765L59.962 64.7024C60.6763 64.8272 61.3704 65.0062 62.0384 65.2336" stroke="#124342" stroke-width="3" stroke-miterlimit="10" stroke-linecap="round" stroke-linejoin="round"/>
<path d="M45.2354 53.1147V60.0242C45.2354 60.33 45.2897 60.6238 45.3923 60.8974" stroke="#124342" stroke-width="3" stroke-miterlimit="10" stroke-linecap="round" stroke-linejoin="round"/>
<path d="M28.133 53.1509V60.0241C28.133 60.33 28.0767 60.6257 27.9761 60.8994" stroke="#124342" stroke-width="3" stroke-miterlimit="10" stroke-linecap="round" stroke-linejoin="round"/>
<path d="M54.5996 25.9438H55.4809C58.5654 25.9438 61.0664 28.4428 61.0664 31.5294C61.0664 33.0706 60.4406 34.467 59.4306 35.477C58.4185 36.4871 57.0221 37.1129 55.4809 37.1129H54.5996" stroke="#124342" stroke-width="3" stroke-miterlimit="10" stroke-linecap="round" stroke-linejoin="round"/>
<path d="M18.769 37.1129H17.8878C14.8012 37.1129 12.3022 34.6139 12.3022 31.5294C12.3022 29.9861 12.926 28.5897 13.9381 27.5797C14.9481 26.5676 16.3445 25.9438 17.8878 25.9438H18.769" stroke="#124342" stroke-width="3" stroke-miterlimit="10" stroke-linecap="round" stroke-linejoin="round"/>
<path d="M18.4663 101.999L18.4742 85.8159" stroke="#124342" stroke-width="3" stroke-miterlimit="10" stroke-linecap="round" stroke-linejoin="round"/>
<path d="M19.5276 22.5729C24.8195 20.4472 27.4886 19.2733 28.8616 16.9677C29.2944 16.2411 30.3205 16.1564 30.8429 16.8214C34.9594 22.0641 42.8409 22.7536 53.4652 23.4001C54.1022 23.4389 54.6 23.9669 54.6 24.6051V37.1796C54.6 47.059 46.6972 55.2474 36.8179 55.3192C26.8614 55.3916 18.769 47.344 18.769 37.4041V23.6935C18.769 23.2005 19.07 22.7568 19.5276 22.5729Z" stroke="#124342" stroke-width="3" stroke-miterlimit="10" stroke-linecap="round" stroke-linejoin="round"/>
<path d="M54.9001 85.8169L54.8921 102" stroke="#124342" stroke-width="3" stroke-miterlimit="10" stroke-linecap="round" stroke-linejoin="round"/>
<path d="M45.0127 30.6226V32.4334" stroke="#124342" stroke-width="3" stroke-miterlimit="10" stroke-linecap="round" stroke-linejoin="round"/>
<path d="M28.354 30.6226V32.4334" stroke="#124342" stroke-width="3" stroke-miterlimit="10" stroke-linecap="round" stroke-linejoin="round"/>
<path d="M33.1997 45.5C35.277 47.0105 38.0896 47.0105 40.1669 45.5" stroke="#124342" stroke-width="3" stroke-miterlimit="10" stroke-linecap="round" stroke-linejoin="round"/>
<path d="M36.1802 40.0269H37.1862" stroke="#124342" stroke-width="3" stroke-miterlimit="10" stroke-linecap="round" stroke-linejoin="round"/>
<path d="M33.9963 78.521L30.4731 102" stroke="#124342" stroke-width="3" stroke-miterlimit="10" stroke-linecap="round" stroke-linejoin="round"/>
<path d="M42.8933 102L39.3701 78.521" stroke="#124342" stroke-width="3" stroke-miterlimit="10" stroke-linecap="round" stroke-linejoin="round"/>
<path d="M32.6182 74.3804L32.9683 77.0222C33.1011 78.0222 33.9542 78.7687 34.9622 78.7687H38.4049C39.4129 78.7687 40.266 78.0222 40.3988 77.0222L40.7489 74.3804" stroke="#124342" stroke-width="3" stroke-miterlimit="10" stroke-linecap="round" stroke-linejoin="round"/>
<path d="M52.1174 62.056L49.0296 58.9683C48.5582 58.4969 47.7938 58.4969 47.3224 58.9683L37.0367 69.254C36.5652 69.7255 36.5652 70.4899 37.0367 70.9613L40.1244 74.049C40.5958 74.5204 41.3602 74.5204 41.8316 74.049L52.1174 63.7633C52.5888 63.2919 52.5888 62.5275 52.1174 62.056Z" stroke="#124342" stroke-width="3" stroke-miterlimit="10" stroke-linecap="round" stroke-linejoin="round"/>
<path d="M21.2486 62.056L24.3363 58.9683C24.8077 58.4969 25.5721 58.4969 26.0436 58.9683L36.3293 69.254C36.8007 69.7255 36.8007 70.4899 36.3293 70.9613L33.2415 74.049C32.7701 74.5204 32.0057 74.5204 31.5343 74.049L21.2486 63.7633C20.7772 63.2919 20.7772 62.5275 21.2486 62.056Z" stroke="#124342" stroke-width="3" stroke-miterlimit="10" stroke-linecap="round" stroke-linejoin="round"/>
<path d="M40.2253 84.2222L32.4644 88.7234" stroke="#124342" stroke-width="3" stroke-miterlimit="10" stroke-linecap="round" stroke-linejoin="round"/>
<path d="M41.3911 91.9868L31.0776 97.9687" stroke="#124342" stroke-width="3" stroke-miterlimit="10" stroke-linecap="round" stroke-linejoin="round"/>
<path d="M64.8452 95.3605V69.6382" stroke="#124342" stroke-width="3" stroke-miterlimit="10" stroke-linecap="round" stroke-linejoin="round"/>
<path d="M99.1729 95.36V69.6396" stroke="#124342" stroke-width="3" stroke-miterlimit="10" stroke-linecap="round" stroke-linejoin="round"/>
<path d="M75.9014 95.3606V80.3787C75.9014 79.4894 76.6217 78.769 77.511 78.769H86.505C87.3943 78.769 88.1146 79.4894 88.1146 80.3787V95.3606" stroke="#124342" stroke-width="3" stroke-miterlimit="10" stroke-linecap="round" stroke-linejoin="round"/>
<path d="M100.793 102H63.2238C62.557 102 62.0166 101.46 62.0166 100.793V96.5676C62.0166 95.9008 62.557 95.3604 63.2238 95.3604H100.793C101.459 95.3604 102 95.9008 102 96.5676V100.793C102 101.46 101.459 102 100.793 102Z" stroke="#124342" stroke-width="3" stroke-miterlimit="10" stroke-linecap="round" stroke-linejoin="round"/>
<path d="M98.9175 63.0545L101.62 64.7326C101.857 64.8794 102 65.139 102 65.4167V69.9479C102 70.5776 101.306 70.964 100.771 70.632L82.4326 59.2396C82.173 59.0786 81.8431 59.0786 81.5835 59.2396L63.2455 70.632C62.7103 70.964 62.0161 70.5776 62.0161 69.9479V65.4167C62.0161 65.139 62.161 64.8794 62.3964 64.7326L81.5835 52.8151C81.8431 52.6541 82.173 52.6541 82.4326 52.8151L92.9336 59.3362" stroke="#124342" stroke-width="3" stroke-miterlimit="10" stroke-linecap="round" stroke-linejoin="round"/>
<path d="M82.0084 73.3499C83.9531 73.3499 85.5296 71.7734 85.5296 69.8287C85.5296 67.8841 83.9531 66.3076 82.0084 66.3076C80.0638 66.3076 78.4873 67.8841 78.4873 69.8287C78.4873 71.7734 80.0638 73.3499 82.0084 73.3499Z" stroke="#124342" stroke-width="3" stroke-miterlimit="10" stroke-linecap="round" stroke-linejoin="round"/>
</svg>
