<svg width="91" height="23" viewBox="0 0 91 23" fill="none" xmlns="http://www.w3.org/2000/svg">
<path d="M90.0607 12.5607C90.6464 11.9749 90.6464 11.0251 90.0607 10.4393L80.5147 0.893398C79.9289 0.307611 78.9792 0.307611 78.3934 0.893398C77.8076 1.47919 77.8076 2.42893 78.3934 3.01472L86.8787 11.5L78.3934 19.9853C77.8076 20.5711 77.8076 21.5208 78.3934 22.1066C78.9792 22.6924 79.9289 22.6924 80.5147 22.1066L90.0607 12.5607ZM0 13H3.17857V10H0V13ZM9.53571 13H15.8929V10H9.53571V13ZM22.25 13H28.6071V10H22.25V13ZM34.9643 13H41.3214V10H34.9643V13ZM47.6786 13H54.0357V10H47.6786V13ZM60.3929 13H66.75V10H60.3929V13ZM73.1071 13H79.4643V10H73.1071V13ZM85.8214 13H89V10H85.8214V13Z" fill="#124342"/>
</svg>
