<svg width="63" height="66" viewBox="0 0 63 66" fill="none" xmlns="http://www.w3.org/2000/svg">
<path d="M0.622377 43.888L0.617803 43.4943C0.461581 30.0484 5.67842 23.5058 17.5198 22.2468C18.7583 22.1112 19.8877 23.0066 20.0235 24.2771C20.1589 25.5173 19.2344 26.6488 17.9959 26.7844C8.51054 27.7736 5.02444 32.2969 5.15427 43.4716L5.15885 43.8653C5.30205 56.1907 9.70739 60.5007 22.0154 60.3569L41.7325 60.1265C54.0405 59.9826 58.3445 55.5709 58.2013 43.2455L58.1967 42.8518C58.0661 31.6165 54.4154 27.1766 44.7289 26.472C43.4872 26.3351 42.5378 25.3164 42.6436 24.0128C42.7196 22.7398 43.8279 21.8183 45.0689 21.8946C57.1167 22.7836 62.5752 29.2317 62.7324 42.7685L62.737 43.1622C62.9098 58.0314 56.6331 64.4652 41.7849 64.6387L22.0678 64.8691C7.21959 65.0426 0.795136 58.7573 0.622377 43.888Z" fill="#E0B109"/>
<path d="M29.3992 42.4597L28.946 3.45348C28.9315 2.21182 29.9479 1.17014 31.1879 1.15565C32.428 1.14117 33.4683 2.15882 33.4827 3.40048L33.9359 42.4067C33.9504 43.6484 32.934 44.69 31.694 44.7045C30.4539 44.719 29.414 43.7316 29.3992 42.4597Z" fill="#E0B109"/>
<path d="M19.1907 35.8244C19.184 35.249 19.389 34.6711 19.8373 34.2116C20.7041 33.3231 22.1557 33.3061 23.0429 34.1741L31.67 42.6144L40.0987 33.9748C40.9655 33.0863 42.417 33.0694 43.3042 33.9373C44.1914 34.8053 44.2083 36.2589 43.3415 37.1474L33.3287 47.4108C32.4619 48.2992 31.0104 48.3162 30.1232 47.4482L19.8746 37.4216C19.4158 36.9727 19.1974 36.3998 19.1907 35.8244Z" fill="#E0B109"/>
</svg>
