<svg width="322" height="53" viewBox="0 0 322 53" fill="none" xmlns="http://www.w3.org/2000/svg">
<path d="M2.10994 18.135L2.11022 1.33496L8.95022 1.33485C10.7422 1.33482 12.3102 1.69479 13.6542 2.41477C15.0142 3.11875 16.0702 4.10273 16.8221 5.36672C17.5741 6.63071 17.9501 8.0867 17.9501 9.7347C17.95 11.3827 17.574 12.8387 16.822 14.1027C16.07 15.3667 15.014 16.3588 13.654 17.0788C12.3099 17.7828 10.7419 18.1348 8.94994 18.1349L2.10994 18.135ZM3.88596 16.5989L8.85396 16.5989C10.342 16.5988 11.63 16.3108 12.718 15.7348C13.822 15.1428 14.678 14.3348 15.286 13.3107C15.894 12.2707 16.1981 11.0787 16.1981 9.73473C16.1981 8.37473 15.8941 7.18273 15.2861 6.15874C14.6782 5.13475 13.8222 4.33477 12.7182 3.75879C11.6302 3.1668 10.3422 2.87083 8.85419 2.87085L3.8862 2.87094L3.88596 16.5989ZM26.7141 18.2546C25.4981 18.2546 24.4021 17.9826 23.4261 17.4386C22.4661 16.8786 21.7061 16.1186 21.1461 15.1586C20.5861 14.1827 20.3061 13.0707 20.3062 11.8227C20.3062 10.5587 20.5862 9.44666 21.1462 8.48665C21.7062 7.52664 22.4662 6.77462 23.4263 6.23061C24.3863 5.68659 25.4823 5.41457 26.7143 5.41455C27.9623 5.41453 29.0663 5.68651 30.0263 6.23049C31.0022 6.77448 31.7622 7.52647 32.3062 8.48646C32.8662 9.44645 33.1462 10.5584 33.1462 11.8224C33.1461 13.0704 32.8661 14.1824 32.3061 15.1585C31.7621 16.1185 31.0021 16.8785 30.0261 17.4385C29.0501 17.9825 27.9461 18.2545 26.7141 18.2546ZM26.7141 16.7426C27.6261 16.7425 28.4341 16.5425 29.1381 16.1425C29.8421 15.7265 30.3941 15.1505 30.7941 14.4145C31.2101 13.6625 31.4181 12.7985 31.4182 11.8225C31.4182 10.8305 31.2102 9.96648 30.7942 9.23048C30.3942 8.49449 29.8422 7.9265 29.1382 7.52651C28.4342 7.11052 27.6342 6.90254 26.7382 6.90255C25.8422 6.90257 25.0422 7.11058 24.3382 7.52659C23.6342 7.9266 23.0742 8.49461 22.6582 9.23062C22.2422 9.96663 22.0342 10.8306 22.0342 11.8226C22.0341 12.7986 22.2421 13.6626 22.6581 14.4146C23.0741 15.1506 23.6341 15.7266 24.3381 16.1426C25.0421 16.5426 25.8341 16.7426 26.7141 16.7426ZM38.8414 18.1344L34.0896 5.53443L35.7216 5.5344L40.0414 17.2223L39.2974 17.2223L43.7376 5.53426L45.2016 5.53424L49.5934 17.2222L48.8494 17.2222L53.2416 5.5341L54.8016 5.53408L50.0254 18.1342L48.4174 18.1342L44.1935 7.14226L44.6975 7.14225L40.4494 18.1343L38.8414 18.1344ZM63.7993 5.41392C64.8233 5.41391 65.7193 5.61389 66.4873 6.01388C67.2713 6.39786 67.8793 6.98985 68.3113 7.78985C68.7593 8.58984 68.9832 9.59784 68.9832 10.8138L68.9831 18.1338L67.2791 18.1339L67.2792 10.9819C67.2792 9.65387 66.9433 8.65387 66.2713 7.98188C65.6153 7.29389 64.6873 6.94991 63.4873 6.94993C62.5913 6.94994 61.8073 7.13396 61.1353 7.50197C60.4793 7.85398 59.9673 8.37399 59.5993 9.062C59.2472 9.734 59.0712 10.55 59.0712 11.51L59.0711 18.134L57.3671 18.134L57.3673 5.53403L58.9993 5.534L58.9993 8.99001L58.7353 8.34201C59.1353 7.43 59.7753 6.71799 60.6553 6.20598C61.5353 5.67796 62.5833 5.41394 63.7993 5.41392ZM73.5858 18.1338L73.5861 0.325755L75.2901 0.325726L75.2898 18.1337L73.5858 18.1338ZM85.1672 18.2536C83.9512 18.2536 82.8552 17.9816 81.8792 17.4376C80.9192 16.8776 80.1592 16.1177 79.5992 15.1577C79.0392 14.1817 78.7592 13.0697 78.7593 11.8217C78.7593 10.5577 79.0393 9.44567 79.5993 8.48566C80.1593 7.52565 80.9193 6.77363 81.8794 6.22962C82.8394 5.6856 83.9354 5.41358 85.1674 5.41356C86.4154 5.41354 87.5194 5.68552 88.4794 6.22951C89.4553 6.77349 90.2153 7.52548 90.7593 8.48547C91.3193 9.44546 91.5993 10.5575 91.5993 11.8215C91.5992 13.0695 91.3192 14.1815 90.7592 15.1575C90.2152 16.1175 89.4552 16.8775 88.4792 17.4375C87.5032 17.9815 86.3992 18.2535 85.1672 18.2536ZM85.1672 16.7416C86.0792 16.7416 86.8872 16.5415 87.5912 16.1415C88.2952 15.7255 88.8472 15.1495 89.2472 14.4135C89.6632 13.6615 89.8712 12.7975 89.8713 11.8215C89.8713 10.8295 89.6633 9.96549 89.2473 9.22949C88.8473 8.4935 88.2953 7.92551 87.5913 7.52552C86.8873 7.10953 86.0873 6.90155 85.1913 6.90156C84.2953 6.90158 83.4953 7.10959 82.7913 7.5256C82.0873 7.92561 81.5273 8.49362 81.1113 9.22963C80.6953 9.96564 80.4873 10.8296 80.4873 11.8216C80.4872 12.7976 80.6952 13.6616 81.1112 14.4136C81.5272 15.1496 82.0872 15.7256 82.7912 16.1416C83.4952 16.5416 84.2872 16.7416 85.1672 16.7416ZM102.904 18.1333L102.904 15.3493L102.832 14.8933L102.832 10.2373C102.832 9.16526 102.528 8.34127 101.92 7.76528C101.328 7.18929 100.44 6.9013 99.2559 6.90132C98.4399 6.90134 97.6639 7.03735 96.9279 7.30936C96.1919 7.58138 95.5679 7.94139 95.0559 8.3894L94.2879 7.11741C94.9279 6.5734 95.6959 6.15738 96.5919 5.86937C97.4879 5.56535 98.4319 5.41334 99.4239 5.41332C101.056 5.41329 102.312 5.82127 103.192 6.63726C104.088 7.43724 104.536 8.66124 104.536 10.3092L104.536 18.1332L102.904 18.1333ZM98.5597 18.2533C97.6157 18.2534 96.7917 18.1014 96.0877 17.7974C95.3997 17.4774 94.8717 17.0454 94.5037 16.5014C94.1357 15.9414 93.9518 15.3014 93.9518 14.5814C93.9518 13.9254 94.1038 13.3334 94.4078 12.8054C94.7278 12.2614 95.2398 11.8294 95.9438 11.5094C96.6638 11.1734 97.6238 11.0054 98.8238 11.0053L103.168 11.0053L103.168 12.2773L98.8718 12.2773C97.6558 12.2774 96.8078 12.4934 96.3278 12.9254C95.8638 13.3574 95.6318 13.8934 95.6318 14.5334C95.6318 15.2534 95.9118 15.8294 96.4717 16.2614C97.0317 16.6934 97.8157 16.9094 98.8237 16.9093C99.7837 16.9093 100.608 16.6933 101.296 16.2613C102 15.8133 102.512 15.1733 102.832 14.3413L103.216 15.5173C102.896 16.3493 102.336 17.0133 101.536 17.5093C100.752 18.0053 99.7597 18.2533 98.5597 18.2533ZM114.18 18.2531C112.98 18.2531 111.9 17.9811 110.94 17.4371C109.996 16.8931 109.252 16.1412 108.708 15.1812C108.164 14.2052 107.892 13.0852 107.892 11.8212C107.892 10.5412 108.164 9.42117 108.708 8.46116C109.252 7.50115 109.996 6.75714 110.94 6.22913C111.9 5.68511 112.98 5.41309 114.18 5.41307C115.284 5.41305 116.268 5.66104 117.132 6.15702C118.012 6.65301 118.708 7.38099 119.22 8.34099C119.748 9.28498 120.012 10.445 120.012 11.821C120.012 13.181 119.756 14.341 119.244 15.301C118.732 16.261 118.036 16.997 117.156 17.509C116.292 18.005 115.3 18.2531 114.18 18.2531ZM114.3 16.7411C115.196 16.7411 115.996 16.541 116.7 16.141C117.42 15.725 117.98 15.149 118.38 14.413C118.796 13.661 119.004 12.797 119.004 11.821C119.004 10.829 118.796 9.96499 118.38 9.229C117.98 8.49301 117.42 7.92502 116.7 7.52503C115.996 7.10904 115.196 6.90105 114.3 6.90107C113.42 6.90108 112.628 7.1091 111.924 7.52511C111.22 7.92512 110.66 8.49313 110.244 9.22914C109.828 9.96515 109.62 10.8292 109.62 11.8212C109.62 12.7972 109.828 13.6611 110.244 14.4131C110.66 15.1491 111.22 15.7251 111.924 16.1411C112.628 16.5411 113.42 16.7411 114.3 16.7411ZM119.052 18.133L119.052 14.341L119.22 11.797L118.98 9.25299L118.98 0.324987L120.684 0.324958L120.684 18.133L119.052 18.133ZM136.151 18.2767C135.063 18.2767 134.095 18.1007 133.247 17.7488C132.399 17.3808 131.727 16.8768 131.231 16.2368C130.751 15.5968 130.511 14.8528 130.511 14.0048C130.511 13.2848 130.671 12.6288 130.991 12.0368C131.311 11.4288 131.823 10.8368 132.527 10.2608C133.247 9.66875 134.199 9.05273 135.383 8.41271C136.391 7.8527 137.175 7.37268 137.735 6.97267C138.311 6.55666 138.719 6.16466 138.959 5.79665C139.199 5.41265 139.319 5.00465 139.319 4.57265C139.319 3.94865 139.103 3.44465 138.671 3.06066C138.255 2.67666 137.655 2.48467 136.871 2.48469C136.023 2.4847 135.367 2.70071 134.903 3.13272C134.439 3.54873 134.207 4.09273 134.207 4.76473C134.207 5.10073 134.255 5.42073 134.351 5.72473C134.463 6.02873 134.663 6.36472 134.951 6.73272C135.255 7.10071 135.671 7.56471 136.199 8.1247L145.079 17.2686L144.095 18.3966L134.831 8.86872C134.271 8.27673 133.823 7.76474 133.487 7.33275C133.167 6.88475 132.943 6.46075 132.815 6.06076C132.687 5.66076 132.623 5.23676 132.623 4.78876C132.623 4.06876 132.791 3.44476 133.127 2.91675C133.479 2.37274 133.975 1.95673 134.615 1.66872C135.255 1.36471 136.007 1.2127 136.871 1.21268C137.655 1.21267 138.335 1.34866 138.911 1.62065C139.503 1.87664 139.959 2.25263 140.279 2.74863C140.615 3.24462 140.783 3.84462 140.783 4.54862C140.783 5.15662 140.631 5.72462 140.327 6.25263C140.039 6.78063 139.559 7.30064 138.887 7.81265C138.215 8.30867 137.303 8.86868 136.151 9.4927C135.143 10.0527 134.343 10.5647 133.751 11.0287C133.175 11.4928 132.767 11.9488 132.527 12.3968C132.287 12.8288 132.167 13.3088 132.167 13.8368C132.167 14.4448 132.335 14.9808 132.671 15.4448C133.023 15.8928 133.503 16.2447 134.111 16.5007C134.735 16.7407 135.447 16.8607 136.247 16.8607C137.367 16.8607 138.367 16.6287 139.247 16.1647C140.127 15.7006 140.863 14.9966 141.455 14.0526C142.063 13.1086 142.503 11.9246 142.775 10.5006L144.143 10.9326C143.839 12.5326 143.319 13.8766 142.583 14.9646C141.847 16.0526 140.935 16.8766 139.847 17.4366C138.759 17.9967 137.527 18.2767 136.151 18.2767ZM160.688 18.1323L160.688 1.33228L166.976 1.33218C168.4 1.33215 169.624 1.56413 170.648 2.02811C171.672 2.4761 172.456 3.13208 173 3.99607C173.56 4.84407 173.84 5.87606 173.84 7.09206C173.84 8.27606 173.56 9.30007 173 10.1641C172.456 11.0121 171.672 11.6681 170.648 12.1321C169.624 12.5801 168.4 12.8042 166.976 12.8042L161.672 12.8043L162.464 11.9883L162.464 18.1323L160.688 18.1323ZM172.16 18.1321L167.84 12.0362L169.76 12.0361L174.104 18.1321L172.16 18.1321ZM162.464 12.1323L161.672 11.2923L166.928 11.2922C168.608 11.2922 169.88 10.9241 170.744 10.1881C171.624 9.4521 172.064 8.42009 172.064 7.09209C172.064 5.74809 171.624 4.7081 170.744 3.97211C169.88 3.23613 168.608 2.86815 166.928 2.86818L161.672 2.86827L162.464 2.02825L162.464 12.1323ZM183.024 18.2519C181.712 18.2519 180.56 17.98 179.568 17.436C178.576 16.876 177.8 16.116 177.24 15.156C176.68 14.18 176.4 13.068 176.4 11.82C176.4 10.572 176.664 9.46802 177.192 8.50801C177.736 7.548 178.472 6.79598 179.4 6.25197C180.344 5.69195 181.4 5.41193 182.568 5.41191C183.752 5.41189 184.8 5.68388 185.712 6.22786C186.64 6.75585 187.368 7.50783 187.896 8.48383C188.424 9.44382 188.688 10.5558 188.688 11.8198C188.688 11.8998 188.68 11.9878 188.664 12.0838C188.664 12.1638 188.664 12.2518 188.664 12.3478L177.696 12.348L177.696 11.076L187.752 11.0758L187.08 11.5798C187.08 10.6678 186.88 9.85984 186.48 9.15585C186.096 8.43586 185.568 7.87586 184.896 7.47588C184.224 7.07589 183.448 6.8759 182.568 6.87591C181.704 6.87593 180.928 7.07594 180.24 7.47595C179.552 7.87597 179.016 8.43598 178.632 9.15598C178.248 9.87599 178.056 10.7 178.056 11.628L178.056 11.892C178.056 12.852 178.264 13.7 178.68 14.436C179.112 15.156 179.704 15.724 180.456 16.14C181.224 16.5399 182.096 16.7399 183.072 16.7399C183.84 16.7399 184.552 16.6039 185.208 16.3319C185.88 16.0599 186.456 15.6439 186.936 15.0838L187.896 16.1878C187.336 16.8598 186.632 17.3719 185.784 17.7239C184.952 18.0759 184.032 18.2519 183.024 18.2519ZM199.701 18.1316L199.701 15.3476L199.629 14.8916L199.629 10.2356C199.629 9.16363 199.325 8.33963 198.717 7.76364C198.125 7.18765 197.237 6.89967 196.053 6.89969C195.237 6.8997 194.461 7.03571 193.725 7.30773C192.989 7.57974 192.365 7.93975 191.853 8.38776L191.085 7.11577C191.725 6.57176 192.493 6.15575 193.389 5.86773C194.285 5.56372 195.229 5.4117 196.221 5.41168C197.853 5.41166 199.109 5.81963 199.989 6.63562C200.885 7.4356 201.333 8.6596 201.333 10.3076L201.333 18.1316L199.701 18.1316ZM195.357 18.2517C194.413 18.2517 193.589 18.0997 192.885 17.7957C192.197 17.4758 191.669 17.0438 191.301 16.4998C190.933 15.9398 190.749 15.2998 190.749 14.5798C190.749 13.9238 190.901 13.3318 191.205 12.8038C191.525 12.2598 192.037 11.8278 192.741 11.5077C193.461 11.1717 194.421 11.0037 195.621 11.0037L199.965 11.0036L199.965 12.2756L195.669 12.2757C194.453 12.2757 193.605 12.4917 193.125 12.9237C192.661 13.3557 192.429 13.8918 192.429 14.5318C192.429 15.2518 192.709 15.8277 193.269 16.2597C193.829 16.6917 194.613 16.9077 195.621 16.9077C196.581 16.9077 197.405 16.6917 198.093 16.2597C198.797 15.8116 199.309 15.1716 199.629 14.3396L200.013 15.5156C199.693 16.3476 199.133 17.0116 198.333 17.5077C197.549 18.0037 196.557 18.2517 195.357 18.2517ZM210.977 18.2514C209.777 18.2515 208.697 17.9795 207.737 17.4355C206.793 16.8915 206.049 16.1395 205.505 15.1795C204.961 14.2035 204.689 13.0835 204.689 11.8195C204.689 10.5395 204.961 9.41954 205.505 8.45953C206.049 7.49952 206.793 6.7555 207.737 6.22749C208.697 5.68347 209.777 5.41145 210.977 5.41143C212.081 5.41141 213.065 5.6594 213.929 6.15538C214.809 6.65137 215.505 7.37936 216.017 8.33935C216.545 9.28334 216.809 10.4433 216.809 11.8193C216.809 13.1793 216.553 14.3393 216.041 15.2994C215.529 16.2594 214.833 16.9954 213.953 17.5074C213.089 18.0034 212.097 18.2514 210.977 18.2514ZM211.097 16.7394C211.993 16.7394 212.793 16.5394 213.497 16.1394C214.217 15.7234 214.777 15.1474 215.177 14.4114C215.593 13.6594 215.801 12.7954 215.801 11.8194C215.801 10.8274 215.593 9.96336 215.177 9.22736C214.777 8.49137 214.217 7.92338 213.497 7.52339C212.793 7.1074 211.993 6.89942 211.097 6.89943C210.217 6.89945 209.425 7.10746 208.721 7.52347C208.017 7.92348 207.457 8.49149 207.041 9.2275C206.625 9.96351 206.417 10.8275 206.417 11.8195C206.417 12.7955 206.625 13.6595 207.041 14.4115C207.457 15.1475 208.017 15.7235 208.721 16.1395C209.425 16.5395 210.217 16.7395 211.097 16.7394ZM215.849 18.1314L215.849 14.3394L216.017 11.7954L215.777 9.25135L215.777 0.32335L217.481 0.323321L217.481 18.1313L215.849 18.1314ZM12.0335 46.4348C10.3935 46.4348 8.88346 46.1649 7.50347 45.6249C6.12348 45.0849 4.92349 44.3349 3.90351 43.375C2.88353 42.395 2.09355 41.255 1.53357 39.955C0.973593 38.635 0.693617 37.195 0.693644 35.635C0.69367 34.075 0.973694 32.645 1.53372 31.345C2.09374 30.025 2.88376 28.885 3.90377 27.9249C4.92379 26.9449 6.1238 26.1849 7.50381 25.6449C8.88382 25.1049 10.3838 24.8348 12.0038 24.8348C13.6438 24.8348 15.1438 25.1048 16.5038 25.6447C17.8838 26.1847 19.0838 26.9447 20.1038 27.9247C21.1238 28.8847 21.9137 30.0246 22.4737 31.3446C23.0337 32.6446 23.3137 34.0746 23.3136 35.6346C23.3136 37.1946 23.0336 38.6346 22.4736 39.9546C21.9135 41.2746 21.1235 42.4147 20.1035 43.3747C19.0835 44.3347 17.8835 45.0847 16.5035 45.6247C15.1435 46.1648 13.6535 46.4348 12.0335 46.4348ZM12.0035 43.0148C13.0635 43.0148 14.0435 42.8348 14.9435 42.4748C15.8435 42.1147 16.6235 41.6047 17.2835 40.9447C17.9436 40.2647 18.4536 39.4847 18.8136 38.6047C19.1936 37.7047 19.3836 36.7147 19.3836 35.6347C19.3837 34.5547 19.1937 33.5747 18.8137 32.6947C18.4537 31.7947 17.9437 31.0147 17.2837 30.3547C16.6237 29.6747 15.8437 29.1547 14.9438 28.7948C14.0438 28.4348 13.0638 28.2548 12.0038 28.2548C10.9438 28.2548 9.96376 28.4348 9.06376 28.7949C8.18375 29.1549 7.40374 29.6749 6.72373 30.3549C6.06372 31.0149 5.54371 31.7949 5.16369 32.6949C4.80368 33.5749 4.62366 34.5549 4.62364 35.6349C4.62362 36.6949 4.80361 37.6749 5.16359 38.5749C5.54358 39.4749 6.06356 40.2649 6.72355 40.9449C7.38354 41.6049 8.16353 42.1149 9.06352 42.4749C9.96352 42.8348 10.9435 43.0148 12.0035 43.0148ZM33.8674 46.3444C32.5074 46.3445 31.3074 46.0945 30.2674 45.5945C29.2274 45.0745 28.4174 44.2945 27.8374 43.2545C27.2574 42.1946 26.9675 40.8646 26.9675 39.2646L26.9676 30.1146L30.7176 30.1145L30.7175 38.7545C30.7175 40.1945 31.0374 41.2745 31.6774 41.9945C32.3374 42.6945 33.2674 43.0445 34.4674 43.0444C35.3474 43.0444 36.1074 42.8644 36.7474 42.5044C37.4074 42.1444 37.9174 41.6044 38.2774 40.8844C38.6575 40.1644 38.8475 39.2744 38.8475 38.2144L38.8476 30.1144L42.5976 30.1143L42.5974 46.1343L39.0274 46.1344L39.0274 41.8144L39.6574 43.1343C39.1174 44.1744 38.3274 44.9744 37.2874 45.5344C36.2474 46.0744 35.1074 46.3444 33.8674 46.3444ZM47.5073 46.1342L47.5075 30.1142L51.0775 30.1141L51.0775 34.5241L50.6575 33.2342C51.1375 32.1541 51.8875 31.3341 52.9075 30.7741C53.9475 30.2141 55.2375 29.9341 56.7775 29.9341L56.7775 33.5041C56.6175 33.4641 56.4675 33.4441 56.3275 33.4441C56.1875 33.4241 56.0475 33.4141 55.9075 33.4141C54.4875 33.4141 53.3575 33.8341 52.5175 34.6741C51.6775 35.4941 51.2574 36.7241 51.2574 38.3641L51.2573 46.1342L47.5073 46.1342ZM78.4759 46.4337C76.8759 46.4337 75.3859 46.1737 74.0059 45.6538C72.646 45.1138 71.456 44.3638 70.436 43.4038C69.436 42.4238 68.656 41.2739 68.096 39.9539C67.5361 38.6339 67.2561 37.1939 67.2561 35.6339C67.2561 34.0739 67.5362 32.6339 68.0962 31.3139C68.6562 29.9939 69.4462 28.8538 70.4662 27.8938C71.4863 26.9138 72.6763 26.1638 74.0363 25.6438C75.3963 25.1037 76.8863 24.8337 78.5063 24.8337C80.2263 24.8337 81.7963 25.1336 83.2163 25.7336C84.6363 26.3136 85.8363 27.1836 86.8162 28.3435L84.2962 30.7136C83.5362 29.8936 82.6862 29.2836 81.7462 28.8836C80.8062 28.4636 79.7862 28.2537 78.6862 28.2537C77.5862 28.2537 76.5762 28.4337 75.6562 28.7937C74.7562 29.1537 73.9662 29.6638 73.2862 30.3238C72.6262 30.9838 72.1062 31.7638 71.7262 32.6638C71.3661 33.5638 71.1861 34.5538 71.1861 35.6338C71.1861 36.7138 71.3661 37.7038 71.7261 38.6038C72.106 39.5038 72.626 40.2838 73.286 40.9438C73.966 41.6038 74.756 42.1138 75.656 42.4737C76.576 42.8337 77.586 43.0137 78.686 43.0137C79.786 43.0137 80.806 42.8136 81.746 42.4136C82.686 41.9936 83.536 41.3636 84.296 40.5236L86.816 42.9235C85.836 44.0636 84.636 44.9336 83.2159 45.5336C81.7959 46.1336 80.2159 46.4337 78.4759 46.4337ZM96.7776 46.3434C95.1376 46.3434 93.6776 45.9934 92.3976 45.2935C91.1176 44.5735 90.1076 43.5935 89.3676 42.3535C88.6277 41.1135 88.2577 39.7035 88.2577 38.1235C88.2577 36.5235 88.6278 35.1135 89.3678 33.8935C90.1078 32.6535 91.1178 31.6835 92.3978 30.9834C93.6778 30.2834 95.1378 29.9334 96.7778 29.9334C98.4378 29.9333 99.9078 30.2833 101.188 30.9833C102.488 31.6833 103.498 32.6433 104.218 33.8632C104.958 35.0832 105.328 36.5032 105.328 38.1232C105.328 39.7032 104.958 41.1132 104.218 42.3533C103.498 43.5933 102.488 44.5733 101.188 45.2933C99.9076 45.9933 98.4376 46.3434 96.7776 46.3434ZM96.7776 43.1334C97.6976 43.1334 98.5176 42.9333 99.2376 42.5333C99.9576 42.1333 100.518 41.5533 100.918 40.7933C101.338 40.0333 101.548 39.1433 101.548 38.1233C101.548 37.0833 101.338 36.1933 100.918 35.4533C100.518 34.6933 99.9578 34.1133 99.2378 33.7133C98.5178 33.3133 97.7078 33.1134 96.8078 33.1134C95.8878 33.1134 95.0678 33.3134 94.3478 33.7134C93.6478 34.1134 93.0878 34.6934 92.6677 35.4534C92.2477 36.1935 92.0377 37.0835 92.0377 38.1235C92.0377 39.1435 92.2477 40.0335 92.6677 40.7934C93.0876 41.5534 93.6476 42.1334 94.3476 42.5334C95.0676 42.9334 95.8776 43.1334 96.7776 43.1334ZM129.134 29.9328C130.414 29.9328 131.544 30.1828 132.524 30.6828C133.524 31.1828 134.304 31.9527 134.864 32.9927C135.424 34.0127 135.704 35.3327 135.704 36.9527L135.703 46.1327L131.953 46.1328L131.954 37.4328C131.954 36.0128 131.644 34.9528 131.024 34.2528C130.404 33.5528 129.514 33.2028 128.354 33.2028C127.534 33.2029 126.804 33.3829 126.164 33.7429C125.544 34.1029 125.054 34.6329 124.694 35.3329C124.354 36.0329 124.184 36.9229 124.184 38.0029L124.183 46.1329L120.433 46.133L120.434 37.433C120.434 36.013 120.124 34.953 119.504 34.253C118.884 33.553 117.994 33.203 116.834 33.203C116.014 33.203 115.284 33.3831 114.644 33.7431C114.024 34.1031 113.534 34.6331 113.174 35.3331C112.834 36.0331 112.664 36.9231 112.664 38.0031L112.663 46.1331L108.913 46.1332L108.914 30.1132L112.484 30.1131L112.484 34.3731L111.854 33.1131C112.394 32.0731 113.174 31.2831 114.194 30.7431C115.234 30.2031 116.414 29.933 117.734 29.933C119.234 29.933 120.534 30.303 121.634 31.043C122.754 31.7829 123.494 32.9029 123.854 34.4029L122.384 33.8929C122.904 32.6929 123.764 31.7329 124.964 31.0129C126.164 30.2929 127.554 29.9329 129.134 29.9328ZM149.376 46.3425C148.076 46.3425 146.886 46.0425 145.806 45.4426C144.746 44.8426 143.896 43.9426 143.256 42.7426C142.636 41.5226 142.326 39.9826 142.326 38.1226C142.326 36.2426 142.626 34.7026 143.226 33.5026C143.846 32.3026 144.686 31.4126 145.746 30.8325C146.806 30.2325 148.016 29.9325 149.376 29.9325C150.956 29.9325 152.346 30.2724 153.546 30.9524C154.766 31.6324 155.726 32.5824 156.426 33.8024C157.146 35.0224 157.506 36.4623 157.506 38.1223C157.506 39.7824 157.146 41.2324 156.426 42.4724C155.726 43.6924 154.766 44.6424 153.546 45.3224C152.346 46.0024 150.956 46.3425 149.376 46.3425ZM140.495 51.9526L140.496 30.1126L144.066 30.1126L144.066 33.8926L143.946 38.1526L144.246 42.4126L144.245 51.9526L140.495 51.9526ZM148.956 43.1325C149.856 43.1325 150.656 42.9325 151.356 42.5325C152.076 42.1324 152.646 41.5524 153.066 40.7924C153.486 40.0324 153.696 39.1424 153.696 38.1224C153.696 37.0824 153.486 36.1924 153.066 35.4524C152.646 34.6924 152.076 34.1124 151.356 33.7125C150.656 33.3125 149.856 33.1125 148.956 33.1125C148.056 33.1125 147.246 33.3125 146.526 33.7125C145.806 34.1125 145.236 34.6926 144.816 35.4526C144.396 36.1926 144.186 37.0826 144.186 38.1226C144.186 39.1426 144.396 40.0326 144.816 40.7926C145.236 41.5526 145.806 42.1325 146.526 42.5325C147.246 42.9325 148.056 43.1325 148.956 43.1325ZM170.727 46.1321L170.727 42.8921L170.517 42.2021L170.517 36.5321C170.517 35.4321 170.187 34.5821 169.527 33.9821C168.867 33.3622 167.867 33.0522 166.527 33.0522C165.627 33.0522 164.737 33.1922 163.857 33.4722C162.997 33.7523 162.267 34.1423 161.667 34.6423L160.197 31.9123C161.057 31.2523 162.077 30.7623 163.257 30.4423C164.457 30.1022 165.697 29.9322 166.977 29.9322C169.297 29.9321 171.087 30.4921 172.347 31.6121C173.627 32.7121 174.267 34.4221 174.267 36.7421L174.267 46.1321L170.727 46.1321ZM165.687 46.3422C164.487 46.3422 163.437 46.1423 162.537 45.7423C161.637 45.3223 160.937 44.7523 160.437 44.0323C159.957 43.2923 159.717 42.4623 159.717 41.5423C159.717 40.6423 159.927 39.8323 160.347 39.1123C160.787 38.3923 161.497 37.8223 162.477 37.4023C163.457 36.9822 164.757 36.7722 166.377 36.7722L171.027 36.7721L171.027 39.2621L166.647 39.2622C165.367 39.2622 164.507 39.4722 164.067 39.8922C163.627 40.2922 163.407 40.7923 163.407 41.3923C163.407 42.0723 163.677 42.6122 164.217 43.0122C164.757 43.4122 165.507 43.6122 166.467 43.6122C167.387 43.6122 168.207 43.4022 168.927 42.9822C169.667 42.5621 170.197 41.9421 170.517 41.1221L171.147 43.3721C170.787 44.3121 170.137 45.0421 169.197 45.5622C168.277 46.0822 167.107 46.3422 165.687 46.3422ZM188.17 29.9318C189.45 29.9318 190.59 30.1818 191.59 30.6818C192.61 31.1818 193.41 31.9517 193.99 32.9917C194.57 34.0117 194.86 35.3317 194.86 36.9517L194.859 46.1317L191.109 46.1318L191.11 37.4318C191.11 36.0118 190.77 34.9518 190.09 34.2518C189.43 33.5518 188.5 33.2018 187.3 33.2018C186.42 33.2019 185.64 33.3819 184.96 33.7419C184.28 34.1019 183.75 34.6419 183.37 35.3619C183.01 36.0619 182.83 36.9519 182.83 38.0319L182.829 46.1319L179.079 46.132L179.08 30.112L182.65 30.1119L182.65 34.4319L182.02 33.1119C182.58 32.0919 183.39 31.3119 184.45 30.7719C185.53 30.2119 186.77 29.9319 188.17 29.9318ZM200.644 52.1616C199.864 52.1616 199.084 52.0317 198.304 51.7717C197.524 51.5117 196.874 51.1517 196.354 50.6917L197.854 47.9317C198.234 48.2717 198.664 48.5417 199.144 48.7416C199.624 48.9416 200.114 49.0416 200.614 49.0416C201.294 49.0416 201.844 48.8716 202.264 48.5316C202.684 48.1916 203.074 47.6216 203.434 46.8216L204.364 44.7216L204.664 44.2716L210.724 30.1114L214.324 30.1114L206.824 47.4215C206.324 48.6215 205.764 49.5715 205.144 50.2715C204.544 50.9716 203.864 51.4616 203.104 51.7416C202.364 52.0216 201.544 52.1616 200.644 52.1616ZM203.944 46.7016L196.714 30.1117L200.614 30.1116L206.494 43.9415L203.944 46.7016ZM225.318 46.1312L225.319 25.1312L233.959 25.1311C235.819 25.131 237.409 25.431 238.729 26.031C240.069 26.6309 241.099 27.4909 241.819 28.6109C242.539 29.7309 242.899 31.0609 242.899 32.6009C242.899 34.1409 242.539 35.4709 241.819 36.5909C241.099 37.7109 240.068 38.571 238.728 39.171C237.408 39.771 235.818 40.071 233.958 40.0711L227.478 40.0712L229.219 38.2411L229.218 46.1311L225.318 46.1312ZM229.218 38.6611L227.479 36.7712L233.779 36.7711C235.499 36.771 236.789 36.411 237.649 35.691C238.529 34.951 238.969 33.921 238.969 32.601C238.969 31.261 238.529 30.231 237.649 29.511C236.789 28.791 235.499 28.431 233.779 28.4311L227.479 28.4312L229.219 26.5111L229.218 38.6611ZM246.286 46.1309L246.287 30.1108L249.857 30.1108L249.857 34.5208L249.437 33.2308C249.917 32.1508 250.667 31.3308 251.687 30.7708C252.727 30.2107 254.017 29.9307 255.557 29.9307L255.557 33.5007C255.397 33.4607 255.247 33.4407 255.107 33.4407C254.967 33.4207 254.827 33.4107 254.687 33.4107C253.267 33.4107 252.137 33.8307 251.297 34.6708C250.457 35.4908 250.037 36.7208 250.037 38.3608L250.036 46.1308L246.286 46.1309ZM265.791 46.3405C264.151 46.3405 262.691 45.9906 261.411 45.2906C260.131 44.5706 259.121 43.5906 258.381 42.3506C257.641 41.1107 257.271 39.7007 257.271 38.1207C257.271 36.5207 257.641 35.1107 258.381 33.8906C259.121 32.6506 260.131 31.6806 261.411 30.9806C262.691 30.2806 264.151 29.9305 265.791 29.9305C267.451 29.9305 268.921 30.2805 270.201 30.9804C271.501 31.6804 272.511 32.6404 273.231 33.8604C273.971 35.0804 274.341 36.5004 274.341 38.1204C274.341 39.7004 273.971 41.1104 273.231 42.3504C272.511 43.5904 271.501 44.5704 270.201 45.2904C268.921 45.9905 267.451 46.3405 265.791 46.3405ZM265.791 43.1305C266.711 43.1305 267.531 42.9305 268.251 42.5305C268.971 42.1305 269.531 41.5505 269.931 40.7904C270.351 40.0304 270.561 39.1404 270.561 38.1204C270.561 37.0804 270.351 36.1904 269.931 35.4504C269.531 34.6905 268.971 34.1105 268.251 33.7105C267.531 33.3105 266.721 33.1105 265.821 33.1105C264.901 33.1105 264.081 33.3105 263.361 33.7106C262.661 34.1106 262.101 34.6906 261.681 35.4506C261.261 36.1906 261.051 37.0806 261.051 38.1206C261.051 39.1406 261.261 40.0306 261.681 40.7906C262.101 41.5506 262.661 42.1306 263.361 42.5306C264.081 42.9305 264.891 43.1305 265.791 43.1305ZM278.437 46.1303L278.437 29.2103C278.437 27.5303 278.927 26.1903 279.907 25.1903C280.907 24.1703 282.327 23.6602 284.167 23.6602C284.827 23.6602 285.447 23.7302 286.027 23.8702C286.627 24.0102 287.127 24.2302 287.527 24.5301L286.507 27.3502C286.227 27.1302 285.907 26.9702 285.547 26.8702C285.187 26.7502 284.817 26.6902 284.437 26.6902C283.657 26.6902 283.067 26.9102 282.667 27.3502C282.267 27.7702 282.067 28.4102 282.067 29.2702L282.067 31.0702L282.187 32.7502L282.187 46.1302L278.437 46.1303ZM275.797 33.2303L275.797 30.2303L286.477 30.2302L286.477 33.2302L275.797 33.2303ZM289.117 46.1301L289.117 30.1101L292.867 30.1101L292.867 46.1301L289.117 46.1301ZM291.007 27.4701C290.307 27.4701 289.727 27.2501 289.267 26.8101C288.827 26.3701 288.607 25.8401 288.607 25.2201C288.607 24.5801 288.827 24.0501 289.267 23.6301C289.727 23.1901 290.307 22.9701 291.007 22.9701C291.707 22.9701 292.277 23.1801 292.717 23.6001C293.177 24 293.407 24.51 293.407 25.13C293.407 25.79 293.187 26.35 292.747 26.8101C292.307 27.2501 291.727 27.4701 291.007 27.4701ZM297.79 46.13L297.791 23.87L301.541 23.8699L301.54 46.1299L297.79 46.13ZM313.992 46.3397C312.212 46.3397 310.652 45.9898 309.312 45.2898C307.992 44.5698 306.962 43.5898 306.222 42.3498C305.502 41.1098 305.142 39.6999 305.142 38.1199C305.142 36.5199 305.492 35.1098 306.192 33.8898C306.912 32.6498 307.892 31.6798 309.132 30.9798C310.393 30.2798 311.823 29.9297 313.423 29.9297C314.983 29.9297 316.373 30.2697 317.592 30.9496C318.812 31.6296 319.772 32.5896 320.472 33.8296C321.172 35.0696 321.522 36.5296 321.522 38.2096C321.522 38.3696 321.512 38.5496 321.492 38.7496C321.492 38.9496 321.482 39.1396 321.462 39.3196L308.112 39.3198L308.112 36.8298L319.482 36.8296L318.012 37.6096C318.032 36.6896 317.842 35.8796 317.442 35.1796C317.042 34.4796 316.492 33.9297 315.792 33.5297C315.112 33.1297 314.322 32.9297 313.422 32.9297C312.502 32.9297 311.692 33.1297 310.992 33.5298C310.312 33.9298 309.772 34.4898 309.372 35.2098C308.992 35.9098 308.802 36.7398 308.802 37.6998L308.802 38.2998C308.802 39.2598 309.022 40.1098 309.462 40.8498C309.902 41.5898 310.522 42.1598 311.322 42.5597C312.122 42.9597 313.042 43.1597 314.082 43.1597C314.982 43.1597 315.792 43.0197 316.512 42.7397C317.232 42.4596 317.872 42.0196 318.432 41.4196L320.442 43.7296C319.722 44.5696 318.812 45.2196 317.712 45.6796C316.632 46.1197 315.392 46.3397 313.992 46.3397Z" fill="#012322" fill-opacity="0.97"/>
</svg>
