<svg width="21" height="20" viewBox="0 0 21 20" fill="none" xmlns="http://www.w3.org/2000/svg">
<path opacity="0.5" d="M10.2308 0C4.69535 0 0.191895 4.48602 0.191895 10C0.191895 15.5136 4.69535 20 10.2308 20C15.7658 20 20.2696 15.5136 20.2696 10C20.2696 4.48602 15.7666 0 10.2308 0ZM14.7091 7.71127C14.7136 7.81036 14.716 7.91026 14.716 8.01015C14.716 11.0517 12.3925 14.5577 8.14138 14.5577C6.83648 14.5577 5.62176 14.1779 4.59951 13.5245C4.78027 13.5459 4.96426 13.5568 5.15067 13.5568C6.23357 13.5568 7.22953 13.1886 8.02047 12.5715C7.00955 12.553 6.15593 11.8875 5.86195 10.9728C6.00267 10.9994 6.14784 11.0143 6.29625 11.0143C6.50692 11.0143 6.71153 10.9869 6.90523 10.9341C5.84821 10.723 5.052 9.79296 5.052 8.67719C5.052 8.66753 5.052 8.65746 5.05241 8.64819C5.36377 8.82019 5.72002 8.92411 6.09851 8.93579C5.47902 8.52373 5.07101 7.81882 5.07101 7.02046C5.07101 6.59832 5.18464 6.20277 5.38359 5.86281C6.52269 7.2557 8.22589 8.17167 10.1458 8.26835C10.1062 8.09957 10.0864 7.92435 10.0864 7.74349C10.0864 6.47265 11.1208 5.44188 12.3966 5.44188C13.0613 5.44188 13.661 5.72142 14.0832 6.16853C14.6101 6.06542 15.1034 5.87449 15.551 5.60984C15.3772 6.14759 15.012 6.59832 14.5336 6.88351C15.0015 6.82792 15.4479 6.70466 15.8608 6.52139C15.5527 6.9822 15.1608 7.38782 14.7091 7.71127Z" fill="white"/>
</svg>
