<svg width="31" height="31" viewBox="0 0 31 31" fill="none" xmlns="http://www.w3.org/2000/svg">
<rect x="0.36084" width="30.3608" height="30.3608" rx="5" fill="#124342"/>
<g clip-path="url(#clip0_51_966)">
<path d="M23.34 7.89969H21.4121V5.97176C21.4121 5.52008 21.0375 5.14551 20.5858 5.14551C20.1341 5.14551 19.7596 5.52008 19.7596 5.97176V7.89969H17.8316C17.3799 7.89969 17.0054 8.27426 17.0054 8.72595C17.0054 9.17764 17.3799 9.55221 17.8316 9.55221H19.7596V11.4801C19.7596 11.9318 20.1341 12.3064 20.5858 12.3064C21.0375 12.3064 21.4121 11.9318 21.4121 11.4801V9.55221H23.34C23.7917 9.55221 24.1663 9.17764 24.1663 8.72595C24.1663 8.27426 23.7917 7.89969 23.34 7.89969Z" fill="#F5F5F5"/>
<path d="M12.9287 18.586L10.8906 20.6241C10.4609 21.0538 9.77786 21.0538 9.33719 20.6351C9.21601 20.514 9.09482 20.4038 8.97364 20.2826C7.83891 19.1369 6.81436 17.936 5.89997 16.6801C4.99659 15.4242 4.26949 14.1683 3.74069 12.9234C3.2229 11.6675 2.9585 10.4667 2.9585 9.32094C2.9585 8.5718 3.0907 7.85571 3.3551 7.19471C3.6195 6.52269 4.03814 5.90575 4.62202 5.35491C5.3271 4.66086 6.09827 4.31934 6.91351 4.31934C7.22198 4.31934 7.53045 4.38544 7.80586 4.51764C8.0923 4.64984 8.34569 4.84814 8.54399 5.13458L11.0999 8.73705C11.2982 9.01247 11.4414 9.26585 11.5405 9.50822C11.6397 9.73957 11.6948 9.97093 11.6948 10.1802C11.6948 10.4446 11.6177 10.709 11.4634 10.9624C11.3202 11.2158 11.1109 11.4802 10.8465 11.7446L10.0092 12.6149C9.88803 12.7361 9.83294 12.8793 9.83294 13.0556C9.83294 13.1437 9.84396 13.2209 9.866 13.309C9.89905 13.3971 9.9321 13.4632 9.95413 13.5293C10.1524 13.8929 10.4939 14.3666 10.9787 14.9395C11.4744 15.5124 12.0032 16.0962 12.5761 16.6801C12.6863 16.7903 12.8075 16.9005 12.9176 17.0106C13.3583 17.4403 13.3693 18.1454 12.9287 18.586Z" fill="#FFFFFE"/>
<path d="M24.9588 22.3087C24.9588 22.6172 24.9037 22.9367 24.7935 23.2451C24.7605 23.3333 24.7274 23.4214 24.6833 23.5095C24.4961 23.9061 24.2537 24.2807 23.9342 24.6332C23.3944 25.2281 22.7995 25.6578 22.1275 25.9332C22.1164 25.9332 22.1054 25.9442 22.0944 25.9442C21.4444 26.2086 20.7393 26.3518 19.9792 26.3518C18.8555 26.3518 17.6547 26.0874 16.3877 25.5476C15.1208 25.0078 13.8539 24.2807 12.598 23.3663C12.1683 23.0468 11.7387 22.7273 11.3311 22.3858L14.9335 18.7833C15.242 19.0147 15.5174 19.191 15.7488 19.3121C15.8038 19.3342 15.8699 19.3672 15.9471 19.4003C16.0352 19.4333 16.1233 19.4444 16.2225 19.4444C16.4098 19.4444 16.553 19.3782 16.6742 19.2571L17.5114 18.4308C17.7869 18.1554 18.0513 17.9461 18.3046 17.8139C18.558 17.6596 18.8114 17.5825 19.0868 17.5825C19.2962 17.5825 19.5165 17.6266 19.7589 17.7257C20.0012 17.8249 20.2546 17.9681 20.53 18.1554L24.1766 20.7443C24.463 20.9426 24.6613 21.174 24.7825 21.4494C24.8927 21.7248 24.9588 22.0002 24.9588 22.3087Z" fill="#F5F5F5"/>
</g>
<defs>
<clipPath id="clip0_51_966">
<rect x="2.99951" y="4" width="25" height="25" rx="5" fill="white"/>
</clipPath>
</defs>
</svg>
