<svg width="17" height="17" viewBox="0 0 17 17" fill="none" xmlns="http://www.w3.org/2000/svg">
<path d="M10.7684 16.5434C10.7703 16.5411 10.7722 16.5387 10.7742 16.5364L16.7252 9.33249C16.7722 9.27526 16.8139 9.21201 16.8497 9.14389L16.943 8.93647L16.9819 8.79503L16.9819 8.69129C17.006 8.53235 17.006 8.36938 16.9819 8.2104L16.9819 8.11612L16.9819 8.00297L16.9119 7.84266C16.8719 7.75333 16.8222 7.67085 16.7641 7.59748L10.7742 0.365277C10.3778 -0.119018 9.73256 -0.122156 9.33302 0.358293C9.33109 0.360592 9.32919 0.362934 9.32726 0.365277C8.943 0.853461 8.943 1.62147 9.32726 2.1097L12.8745 6.41885C13.0249 6.60476 13.0225 6.90328 12.8691 7.08556C12.7977 7.17038 12.7022 7.21865 12.6023 7.22033L1.01915 7.22032C0.456318 7.22027 3.6212e-05 7.77326 -3.00609e-08 8.45548C-3.62721e-05 9.1377 0.456173 9.69072 1.019 9.69081L1.01915 9.69081L12.6023 9.69082C12.817 9.69449 12.9888 9.9085 12.9857 10.1688C12.9843 10.2899 12.9445 10.4058 12.8745 10.4923L9.32726 14.7826C8.93804 15.272 8.93804 16.047 9.32726 16.5364C9.72363 17.0207 10.3689 17.0239 10.7684 16.5434Z" fill="white"/>
</svg>
